<svg width="32" height="32" viewBox="0 0 32 32" fill="none" xmlns="http://www.w3.org/2000/svg">
  <path d="M16 1.5L19.5 5C19.88 5.38 20.39 5.6 20.93 5.6H25.9C26.56 5.6 27.1 6.14 27.1 6.8V11.77C27.1 12.31 27.32 12.82 27.7 13.2L31.2 16.7L27.7 20.2C27.32 20.58 27.1 21.09 27.1 21.63V26.6C27.1 27.26 26.56 27.8 25.9 27.8H20.93C20.39 27.8 19.88 28.02 19.5 28.4L16 31.9L12.5 28.4C12.12 28.02 11.61 27.8 11.07 27.8H6.1C5.44 27.8 4.9 27.26 4.9 26.6V21.63C4.9 21.09 4.68 20.58 4.3 20.2L0.8 16.7L4.3 13.2C4.68 12.82 4.9 12.31 4.9 11.77V6.8C4.9 6.14 5.44 5.6 6.1 5.6H11.07C11.61 5.6 12.12 5.38 12.5 5L16 1.5Z" stroke="currentColor" stroke-width="2.4" stroke-linejoin="round"/>
  <path d="M11.5 20C11.5 20 13.2 22.2 16 22.2C18.8 22.2 20.5 20 20.5 20" stroke="currentColor" stroke-width="2" stroke-linecap="round"/>
</svg>