<svg preserveAspectRatio="none" width="100%" height="100%" overflow="visible" style="display: block;" viewBox="0 0 16 20" fill="none" xmlns="http://www.w3.org/2000/svg">
<path id="icon" fill-rule="evenodd" clip-rule="evenodd" d="M15 0L15.1166 0.0067277C15.614 0.0644928 16 0.487164 16 1C16 1.51284 15.614 1.93551 15.1166 1.99327L15 2H4.23077L4.06956 2.00512C2.89926 2.07969 2 2.95994 2 4C2 5.04006 2.89926 5.92031 4.06956 5.99488L4.23077 6H15C15.5128 6 15.9355 6.38604 15.9933 6.88338L16 7V19C16 19.5128 15.614 19.9355 15.1166 19.9933L15 20H3.15385C1.48954 20 0.102373 18.7671 0.00541258 17.178L0 17V4L0.00521994 3.79889C0.112672 1.73436 1.86558 0.104687 4.02097 0.0048492L4.23077 0H15ZM1.99962 7.3992L2 17C2 17.4994 2.43618 17.9377 3.02536 17.9939L3.15385 18H14V8H4.23077L4.02097 7.99515C3.28347 7.96099 2.59309 7.74772 1.99962 7.3992ZM15 3.0105C15.5523 3.0105 16 3.45821 16 4.0105C16 4.52333 15.614 4.94601 15.1166 5.00377L15 5.0105H6.00777C5.45549 5.0105 5.00777 4.56278 5.00777 4.0105C5.00777 3.49766 5.39381 3.07499 5.89115 3.01723L6.00777 3.0105H15Z" fill="var(--fill-0, black)" fill-opacity="0.65"/>
</svg>
