<svg preserveAspectRatio="none" width="100%" height="100%" overflow="visible" style="display: block;" viewBox="0 0 29.2686 29.2715" fill="none" xmlns="http://www.w3.org/2000/svg">
<g id="Union">
<mask id="path-1-inside-1_0_601" fill="white">
<path d="M14.635 0C14.9469 0.000143177 15.2516 0.124646 15.4758 0.348633L18.7815 3.6543C18.9615 3.83418 19.2115 3.93832 19.4641 3.93848H24.1389C24.7984 3.93863 25.3291 4.46946 25.3293 5.12891V9.80371C25.3294 10.061 25.4295 10.302 25.6135 10.4863L28.9192 13.792C29.3843 14.2572 29.3863 15.01 28.9182 15.4736L28.9192 15.4746L25.6135 18.7803C25.4294 18.9646 25.3294 19.2056 25.3293 19.4629V24.1377C25.3292 24.7916 24.7996 25.328 24.1389 25.3281H19.4641C19.2114 25.3283 18.9615 25.4324 18.7815 25.6123L15.4758 28.918C15.2694 29.1242 14.9949 29.2445 14.7092 29.2627C14.6854 29.2679 14.6604 29.2714 14.635 29.2715C14.3175 29.2714 14.0168 29.1455 13.7932 28.9219L10.4875 25.6172C10.3032 25.433 10.0623 25.3321 9.80493 25.332H5.13013C4.46956 25.3316 3.9397 24.7955 3.9397 24.1416V19.4668C3.9395 19.2095 3.83971 18.9684 3.65552 18.7842L0.349852 15.4795C-0.115036 15.0142 -0.118196 14.2595 0.349852 13.7959L3.65552 10.4902C3.83966 10.3059 3.9397 10.065 3.9397 9.80762V5.13379C3.93985 4.47326 4.47642 3.94377 5.13013 3.94336H9.80493C10.0624 3.94333 10.3032 3.84253 10.4875 3.6582L13.7932 0.348633L13.8811 0.269531C14.0939 0.0954706 14.3619 0.000110239 14.635 0ZM10.7307 25.374L14.0325 28.6748L10.7317 25.374C10.7007 25.3431 10.6683 25.3136 10.635 25.2861L10.7307 25.374ZM12.1711 5.33301C11.5398 5.96426 10.6982 6.3154 9.80005 6.31543H6.31665V9.79883C6.31665 10.6929 5.96501 11.533 5.3352 12.168L5.33423 12.1689L2.86938 14.6328L5.33423 17.0967C5.96536 17.7278 6.31645 18.5689 6.31665 19.4668V22.9512H9.80493C10.6987 22.9512 11.5401 23.3027 12.1711 23.9336L14.634 26.3975L17.0989 23.9336C17.7301 23.3026 18.5712 22.9513 19.469 22.9512H22.9524V19.4668C22.9526 18.5729 23.304 17.7325 23.9338 17.0977L26.3987 14.6328L23.9348 12.1689C23.304 11.5377 22.9524 10.6966 22.9524 9.79883V6.31543H19.469C18.5749 6.31531 17.7347 5.96294 17.0999 5.33301H17.0989L14.634 2.86816L12.1711 5.33301ZM10.2747 16.2744C10.811 15.897 11.5554 16.0273 11.9299 16.5684L12.051 16.7295C12.6751 17.5142 13.6273 17.9764 14.635 17.9766C15.7098 17.9764 16.7212 17.4506 17.3391 16.5684L17.3401 16.5664C17.6951 16.0659 18.3683 15.9176 18.8938 16.21L18.9963 16.2744L18.9983 16.2764C19.5322 16.6551 19.6652 17.3952 19.2903 17.9326L19.2893 17.9336C18.2237 19.4513 16.4839 20.3573 14.635 20.3574C12.7859 20.3573 11.0453 19.4516 9.97973 17.9336L9.98071 17.9326C9.60098 17.3957 9.73169 16.6482 10.2747 16.2734V16.2744ZM13.1477 18.0029C13.1775 18.0163 13.2083 18.0275 13.2385 18.04C13.2 18.024 13.1612 18.0085 13.1233 17.9912L13.1477 18.0029ZM23.9778 17.5635C23.9187 17.6357 23.8635 17.7105 23.8118 17.7871C23.8652 17.7081 23.9225 17.6311 23.9836 17.5566L23.9778 17.5635ZM11.9241 17.1113C11.9376 17.1264 11.9523 17.1405 11.9661 17.1553C11.9462 17.1339 11.9259 17.1127 11.9065 17.0908L11.9241 17.1113ZM18.7268 16.5107C18.7518 16.5246 18.7762 16.54 18.8 16.5566L18.7278 16.5107C18.7029 16.4969 18.6774 16.4847 18.6516 16.4736L18.7268 16.5107ZM10.6194 16.4717C10.6096 16.476 10.5998 16.4806 10.5901 16.4854C10.6252 16.4684 10.6611 16.4541 10.6975 16.4424L10.6194 16.4717ZM18.4934 16.4238C18.5202 16.4295 18.5471 16.436 18.5735 16.4443L18.4934 16.4229C18.4665 16.4172 18.4395 16.4132 18.4124 16.4102L18.4934 16.4238ZM10.7307 3.90137C10.6688 3.96325 10.6024 4.01872 10.5315 4.06641V4.06738C10.6027 4.01973 10.6697 3.96437 10.7317 3.90234L14.0374 0.591797H14.0364L10.7307 3.90137Z"/>
</mask>
<path d="M14.635 0C14.9469 0.000143177 15.2516 0.124646 15.4758 0.348633L18.7815 3.6543C18.9615 3.83418 19.2115 3.93832 19.4641 3.93848H24.1389C24.7984 3.93863 25.3291 4.46946 25.3293 5.12891V9.80371C25.3294 10.061 25.4295 10.302 25.6135 10.4863L28.9192 13.792C29.3843 14.2572 29.3863 15.01 28.9182 15.4736L28.9192 15.4746L25.6135 18.7803C25.4294 18.9646 25.3294 19.2056 25.3293 19.4629V24.1377C25.3292 24.7916 24.7996 25.328 24.1389 25.3281H19.4641C19.2114 25.3283 18.9615 25.4324 18.7815 25.6123L15.4758 28.918C15.2694 29.1242 14.9949 29.2445 14.7092 29.2627C14.6854 29.2679 14.6604 29.2714 14.635 29.2715C14.3175 29.2714 14.0168 29.1455 13.7932 28.9219L10.4875 25.6172C10.3032 25.433 10.0623 25.3321 9.80493 25.332H5.13013C4.46956 25.3316 3.9397 24.7955 3.9397 24.1416V19.4668C3.9395 19.2095 3.83971 18.9684 3.65552 18.7842L0.349852 15.4795C-0.115036 15.0142 -0.118196 14.2595 0.349852 13.7959L3.65552 10.4902C3.83966 10.3059 3.9397 10.065 3.9397 9.80762V5.13379C3.93985 4.47326 4.47642 3.94377 5.13013 3.94336H9.80493C10.0624 3.94333 10.3032 3.84253 10.4875 3.6582L13.7932 0.348633L13.8811 0.269531C14.0939 0.0954706 14.3619 0.000110239 14.635 0ZM10.7307 25.374L14.0325 28.6748L10.7317 25.374C10.7007 25.3431 10.6683 25.3136 10.635 25.2861L10.7307 25.374ZM12.1711 5.33301C11.5398 5.96426 10.6982 6.3154 9.80005 6.31543H6.31665V9.79883C6.31665 10.6929 5.96501 11.533 5.3352 12.168L5.33423 12.1689L2.86938 14.6328L5.33423 17.0967C5.96536 17.7278 6.31645 18.5689 6.31665 19.4668V22.9512H9.80493C10.6987 22.9512 11.5401 23.3027 12.1711 23.9336L14.634 26.3975L17.0989 23.9336C17.7301 23.3026 18.5712 22.9513 19.469 22.9512H22.9524V19.4668C22.9526 18.5729 23.304 17.7325 23.9338 17.0977L26.3987 14.6328L23.9348 12.1689C23.304 11.5377 22.9524 10.6966 22.9524 9.79883V6.31543H19.469C18.5749 6.31531 17.7347 5.96294 17.0999 5.33301H17.0989L14.634 2.86816L12.1711 5.33301ZM10.2747 16.2744C10.811 15.897 11.5554 16.0273 11.9299 16.5684L12.051 16.7295C12.6751 17.5142 13.6273 17.9764 14.635 17.9766C15.7098 17.9764 16.7212 17.4506 17.3391 16.5684L17.3401 16.5664C17.6951 16.0659 18.3683 15.9176 18.8938 16.21L18.9963 16.2744L18.9983 16.2764C19.5322 16.6551 19.6652 17.3952 19.2903 17.9326L19.2893 17.9336C18.2237 19.4513 16.4839 20.3573 14.635 20.3574C12.7859 20.3573 11.0453 19.4516 9.97973 17.9336L9.98071 17.9326C9.60098 17.3957 9.73169 16.6482 10.2747 16.2734V16.2744ZM13.1477 18.0029C13.1775 18.0163 13.2083 18.0275 13.2385 18.04C13.2 18.024 13.1612 18.0085 13.1233 17.9912L13.1477 18.0029ZM23.9778 17.5635C23.9187 17.6357 23.8635 17.7105 23.8118 17.7871C23.8652 17.7081 23.9225 17.6311 23.9836 17.5566L23.9778 17.5635ZM11.9241 17.1113C11.9376 17.1264 11.9523 17.1405 11.9661 17.1553C11.9462 17.1339 11.9259 17.1127 11.9065 17.0908L11.9241 17.1113ZM18.7268 16.5107C18.7518 16.5246 18.7762 16.54 18.8 16.5566L18.7278 16.5107C18.7029 16.4969 18.6774 16.4847 18.6516 16.4736L18.7268 16.5107ZM10.6194 16.4717C10.6096 16.476 10.5998 16.4806 10.5901 16.4854C10.6252 16.4684 10.6611 16.4541 10.6975 16.4424L10.6194 16.4717ZM18.4934 16.4238C18.5202 16.4295 18.5471 16.436 18.5735 16.4443L18.4934 16.4229C18.4665 16.4172 18.4395 16.4132 18.4124 16.4102L18.4934 16.4238ZM10.7307 3.90137C10.6688 3.96325 10.6024 4.01872 10.5315 4.06641V4.06738C10.6027 4.01973 10.6697 3.96437 10.7317 3.90234L14.0374 0.591797H14.0364L10.7307 3.90137Z" fill="var(--fill-0, black)" fill-opacity="0.65"/>
<path d="M14.635 0L14.6351 -0.1L14.635 -0.1L14.635 0ZM15.4758 0.348633L15.5465 0.277922L15.5465 0.277884L15.4758 0.348633ZM18.7815 3.6543L18.7108 3.72501L18.7108 3.72503L18.7815 3.6543ZM19.4641 3.93848L19.464 4.03848H19.4641V3.93848ZM24.1389 3.93848L24.1389 3.83848H24.1389V3.93848ZM25.3293 5.12891H25.4293V5.12887L25.3293 5.12891ZM25.3293 9.80371H25.2293V9.80372L25.3293 9.80371ZM25.6135 10.4863L25.5428 10.557L25.5428 10.557L25.6135 10.4863ZM28.9192 13.792L28.9899 13.7213L28.9899 13.7213L28.9192 13.792ZM28.9182 15.4736L28.8478 15.4026L28.7765 15.4733L28.8475 15.5443L28.9182 15.4736ZM28.9192 15.4746L28.9899 15.5453L29.0606 15.4746L28.9899 15.4039L28.9192 15.4746ZM25.6135 18.7803L25.5428 18.7096L25.5428 18.7096L25.6135 18.7803ZM25.3293 19.4629L25.2293 19.4629V19.4629H25.3293ZM25.3293 24.1377L25.4293 24.1377V24.1377H25.3293ZM24.1389 25.3281V25.4281H24.1389L24.1389 25.3281ZM19.4641 25.3281V25.2281H19.4641L19.4641 25.3281ZM18.7815 25.6123L18.7108 25.5416L18.7108 25.5416L18.7815 25.6123ZM15.4758 28.918L15.5465 28.9887L15.5465 28.9887L15.4758 28.918ZM14.7092 29.2627L14.7029 29.1629L14.6952 29.1634L14.6877 29.165L14.7092 29.2627ZM14.635 29.2715L14.635 29.3715H14.6352L14.635 29.2715ZM13.7932 28.9219L13.8639 28.8512L13.8639 28.8512L13.7932 28.9219ZM10.4875 25.6172L10.5582 25.5465L10.5582 25.5464L10.4875 25.6172ZM9.80493 25.332L9.80494 25.232H9.80493V25.332ZM5.13013 25.332L5.13006 25.432H5.13013V25.332ZM3.9397 19.4668H4.0397V19.4667L3.9397 19.4668ZM3.65552 18.7842L3.72623 18.7135L3.72622 18.7135L3.65552 18.7842ZM0.349852 15.4795L0.27911 15.5502L0.279152 15.5502L0.349852 15.4795ZM0.349852 13.7959L0.420222 13.867L0.420563 13.8666L0.349852 13.7959ZM3.65552 10.4902L3.72623 10.5609L3.72627 10.5609L3.65552 10.4902ZM3.9397 5.13379L3.8397 5.13377V5.13379H3.9397ZM5.13013 3.94336V3.84336H5.13006L5.13013 3.94336ZM9.80493 3.94336V4.04336H9.80494L9.80493 3.94336ZM10.4875 3.6582L10.5582 3.72892L10.5583 3.72887L10.4875 3.6582ZM13.7932 0.348633L13.7262 0.274198L13.7225 0.277964L13.7932 0.348633ZM13.8811 0.269531L13.8177 0.192038L13.8142 0.195202L13.8811 0.269531ZM10.7307 25.374L10.8015 25.3032L10.7984 25.3004L10.7307 25.374ZM14.0325 28.6748L13.9618 28.7455L14.1032 28.6041L14.0325 28.6748ZM10.7317 25.374L10.661 25.4447V25.4447L10.7317 25.374ZM10.635 25.2861L10.6986 25.209L10.5674 25.3598L10.635 25.2861ZM12.1711 5.33301L12.2418 5.40372L12.2419 5.40369L12.1711 5.33301ZM9.80005 6.31543V6.41543H9.80005L9.80005 6.31543ZM6.31665 6.31543V6.21543H6.21665V6.31543H6.31665ZM5.3352 12.168L5.40591 12.2387L5.4062 12.2384L5.3352 12.168ZM5.33423 12.1689L5.40492 12.2397L5.40494 12.2397L5.33423 12.1689ZM2.86938 14.6328L2.79869 14.5621L2.72793 14.6328L2.79869 14.7035L2.86938 14.6328ZM5.33423 17.0967L5.40494 17.026L5.40492 17.026L5.33423 17.0967ZM6.31665 19.4668H6.41665V19.4668L6.31665 19.4668ZM6.31665 22.9512H6.21665V23.0512H6.31665V22.9512ZM9.80493 22.9512L9.80493 22.8512H9.80493V22.9512ZM12.1711 23.9336L12.2419 23.8629L12.2418 23.8629L12.1711 23.9336ZM14.634 26.3975L14.5633 26.4682L14.634 26.5389L14.7047 26.4682L14.634 26.3975ZM17.0989 23.9336L17.1696 24.0043L17.1696 24.0043L17.0989 23.9336ZM19.469 22.9512V22.8512H19.469L19.469 22.9512ZM22.9524 22.9512V23.0512H23.0524V22.9512H22.9524ZM22.9524 19.4668L22.8524 19.4668V19.4668H22.9524ZM23.9338 17.0977L23.8631 17.0269L23.8628 17.0272L23.9338 17.0977ZM26.3987 14.6328L26.4694 14.7035L26.5401 14.6328L26.4694 14.5621L26.3987 14.6328ZM23.9348 12.1689L23.8641 12.2396L23.8641 12.2397L23.9348 12.1689ZM22.9524 6.31543H23.0524V6.21543H22.9524V6.31543ZM19.469 6.31543L19.469 6.41543H19.469V6.31543ZM17.0999 5.33301L17.1703 5.26202L17.141 5.23301H17.0999V5.33301ZM17.0989 5.33301L17.0282 5.40372L17.0575 5.43301H17.0989V5.33301ZM14.634 2.86816L14.7047 2.79745L14.634 2.72671L14.5633 2.79748L14.634 2.86816ZM10.2747 16.2744H10.1747V16.4671L10.3322 16.3562L10.2747 16.2744ZM11.9299 16.5684L11.8476 16.6253L11.85 16.6284L11.9299 16.5684ZM12.051 16.7295L11.9711 16.7896L11.9728 16.7917L12.051 16.7295ZM14.635 17.9766L14.635 18.0766H14.635L14.635 17.9766ZM17.3391 16.5684L17.421 16.6257L17.4253 16.6197L17.4286 16.6131L17.3391 16.5684ZM17.3401 16.5664L17.2585 16.5086L17.2541 16.5148L17.2506 16.5217L17.3401 16.5664ZM18.8938 16.21L18.9471 16.1252L18.9424 16.1226L18.8938 16.21ZM18.9963 16.2744L19.067 16.2037L19.0591 16.1957L19.0496 16.1898L18.9963 16.2744ZM18.9983 16.2764L18.9276 16.3471L18.9335 16.353L18.9404 16.3579L18.9983 16.2764ZM19.2903 17.9326L19.361 18.0033L19.3672 17.9971L19.3723 17.9898L19.2903 17.9326ZM19.2893 17.9336L19.2186 17.8629L19.2125 17.869L19.2075 17.8761L19.2893 17.9336ZM14.635 20.3574L14.635 20.4574H14.635L14.635 20.3574ZM9.97973 17.9336L9.90902 17.8629L9.84962 17.9223L9.89789 17.991L9.97973 17.9336ZM9.98071 17.9326L10.0514 18.0033L10.111 17.9437L10.0624 17.8749L9.98071 17.9326ZM10.2747 16.2734H10.3747V16.0829L10.2178 16.1911L10.2747 16.2734ZM13.1477 18.0029L13.1044 18.0931L13.1069 18.0942L13.1477 18.0029ZM13.2385 18.04L13.2002 18.1324L13.2769 17.9477L13.2385 18.04ZM13.1233 17.9912L13.1648 17.9002L13.08 18.0814L13.1233 17.9912ZM23.9778 17.5635L23.9018 17.4984L23.9004 17.5002L23.9778 17.5635ZM23.8118 17.7871L23.7289 17.7311L23.8946 17.8431L23.8118 17.7871ZM23.9836 17.5566L24.0609 17.6201L23.9077 17.4916L23.9836 17.5566ZM11.9241 17.1113L11.8481 17.1764L11.8497 17.1782L11.9241 17.1113ZM11.9661 17.1553L11.8928 17.2234L12.0393 17.0872L11.9661 17.1553ZM11.9065 17.0908L11.9814 17.0245L11.8306 17.1559L11.9065 17.0908ZM18.7268 16.5107L18.7754 16.4232L18.7711 16.4211L18.7268 16.5107ZM18.8 16.5566L18.7464 16.6411L18.8573 16.4746L18.8 16.5566ZM18.7278 16.5107L18.7815 16.4262L18.7764 16.4234L18.7278 16.5107ZM18.6516 16.4736L18.6911 16.3818L18.6074 16.5633L18.6516 16.4736ZM10.6194 16.4717L10.5842 16.3779L10.5793 16.38L10.6194 16.4717ZM10.5901 16.4854L10.5463 16.3954L10.6337 16.5753L10.5901 16.4854ZM10.6975 16.4424L10.7326 16.536L10.6668 16.3472L10.6975 16.4424ZM18.4934 16.4238L18.5142 16.3259L18.51 16.3252L18.4934 16.4238ZM18.5735 16.4443L18.5476 16.5409L18.6037 16.349L18.5735 16.4443ZM18.4934 16.4229L18.5194 16.3261L18.514 16.325L18.4934 16.4229ZM18.4124 16.4102L18.4234 16.3108L18.3957 16.5088L18.4124 16.4102ZM10.7307 3.90137L10.8014 3.97208L10.8015 3.97204L10.7307 3.90137ZM10.5315 4.06641L10.4757 3.98342L10.4315 4.01314V4.06641H10.5315ZM10.5315 4.06738H10.4315V4.25465L10.5871 4.15048L10.5315 4.06738ZM10.7317 3.90234L10.8024 3.97306L10.8025 3.973L10.7317 3.90234ZM14.0374 0.591797L14.1081 0.662455L14.2785 0.491797H14.0374V0.591797ZM14.0364 0.591797V0.491797H13.9949L13.9656 0.521128L14.0364 0.591797ZM14.635 0L14.635 0.1C14.9205 0.100131 15.1998 0.214212 15.4052 0.419382L15.4758 0.348633L15.5465 0.277884C15.3034 0.0350811 14.9733 -0.0998447 14.6351 -0.1L14.635 0ZM15.4758 0.348633L15.4051 0.419344L18.7108 3.72501L18.7815 3.6543L18.8522 3.58359L15.5465 0.277922L15.4758 0.348633ZM18.7815 3.6543L18.7108 3.72503C18.9094 3.92346 19.1847 4.03831 19.464 4.03848L19.4641 3.93848L19.4642 3.83848C19.2383 3.83834 19.0136 3.7449 18.8522 3.58356L18.7815 3.6543ZM19.4641 3.93848V4.03848H24.1389V3.93848V3.83848H19.4641V3.93848ZM24.1389 3.93848L24.1389 4.03848C24.7431 4.03862 25.2291 4.52469 25.2293 5.12894L25.3293 5.12891L25.4293 5.12887C25.4291 4.41424 24.8536 3.83864 24.1389 3.83848L24.1389 3.93848ZM25.3293 5.12891H25.2293V9.80371H25.3293H25.4293V5.12891H25.3293ZM25.3293 9.80371L25.2293 9.80372C25.2294 10.0878 25.3402 10.3541 25.5428 10.557L25.6135 10.4863L25.6843 10.4157C25.5188 10.2499 25.4294 10.0342 25.4293 9.8037L25.3293 9.80371ZM25.6135 10.4863L25.5428 10.557L28.8485 13.8627L28.9192 13.792L28.9899 13.7213L25.6842 10.4156L25.6135 10.4863ZM28.9192 13.792L28.8485 13.8627C29.2748 14.2891 29.2761 14.9783 28.8478 15.4026L28.9182 15.4736L28.9886 15.5447C29.4964 15.0417 29.4938 14.2254 28.9899 13.7213L28.9192 13.792ZM28.9182 15.4736L28.8475 15.5443L28.8485 15.5453L28.9192 15.4746L28.9899 15.4039L28.9889 15.4029L28.9182 15.4736ZM28.9192 15.4746L28.8485 15.4039L25.5428 18.7096L25.6135 18.7803L25.6842 18.851L28.9899 15.5453L28.9192 15.4746ZM25.6135 18.7803L25.5428 18.7096C25.3401 18.9125 25.2294 19.1788 25.2293 19.4629L25.3293 19.4629L25.4293 19.4629C25.4294 19.2323 25.5187 19.0167 25.6843 18.851L25.6135 18.7803ZM25.3293 19.4629H25.2293V24.1377H25.3293H25.4293V19.4629H25.3293ZM25.3293 24.1377L25.2293 24.1377C25.2292 24.7367 24.744 25.228 24.1389 25.2281L24.1389 25.3281L24.1389 25.4281C24.8552 25.428 25.4292 24.8465 25.4293 24.1377L25.3293 24.1377ZM24.1389 25.3281V25.2281H19.4641V25.3281V25.4281H24.1389V25.3281ZM19.4641 25.3281L19.4641 25.2281C19.1847 25.2283 18.9094 25.3431 18.7108 25.5416L18.7815 25.6123L18.8522 25.683C19.0136 25.5217 19.2382 25.4283 19.4642 25.4281L19.4641 25.3281ZM18.7815 25.6123L18.7108 25.5416L15.4051 28.8473L15.4758 28.918L15.5465 28.9887L18.8522 25.683L18.7815 25.6123ZM15.4758 28.918L15.4051 28.8472C15.2164 29.0359 14.9649 29.1462 14.7029 29.1629L14.7092 29.2627L14.7156 29.3625C15.0249 29.3428 15.3225 29.2126 15.5465 28.9887L15.4758 28.918ZM14.7092 29.2627L14.6877 29.165C14.669 29.1692 14.6513 29.1715 14.6348 29.1715L14.635 29.2715L14.6352 29.3715C14.6694 29.3714 14.7019 29.3667 14.7308 29.3603L14.7092 29.2627ZM14.635 29.2715L14.635 29.1715C14.3443 29.1714 14.0689 29.0562 13.8639 28.8512L13.7932 28.9219L13.7225 28.9926C13.9647 29.2348 14.2907 29.3713 14.635 29.3715L14.635 29.2715ZM13.7932 28.9219L13.8639 28.8512L10.5582 25.5465L10.4875 25.6172L10.4168 25.6879L13.7225 28.9926L13.7932 28.9219ZM10.4875 25.6172L10.5582 25.5464C10.3555 25.3439 10.0893 25.2321 9.80494 25.232L9.80493 25.332L9.80492 25.432C10.0353 25.4321 10.2509 25.5222 10.4169 25.6879L10.4875 25.6172ZM9.80493 25.332V25.232H5.13013V25.332V25.432H9.80493V25.332ZM5.13013 25.332L5.13019 25.232C4.52511 25.2317 4.0397 24.7406 4.0397 24.1416H3.9397H3.8397C3.8397 24.8504 4.41401 25.4316 5.13006 25.432L5.13013 25.332ZM3.9397 24.1416H4.0397V19.4668H3.9397H3.8397V24.1416H3.9397ZM3.9397 19.4668L4.0397 19.4667C4.03948 19.1828 3.92907 18.9163 3.72623 18.7135L3.65552 18.7842L3.5848 18.8549C3.75035 19.0205 3.83952 19.2362 3.8397 19.4669L3.9397 19.4668ZM3.65552 18.7842L3.72622 18.7135L0.420552 15.4088L0.349852 15.4795L0.279152 15.5502L3.58482 18.8549L3.65552 18.7842ZM0.349852 15.4795L0.420594 15.4088C-0.0056635 14.9822 -0.00793917 14.291 0.420221 13.8669L0.349852 13.7959L0.279483 13.7248C-0.228453 14.2279 -0.224408 15.0462 0.27911 15.5502L0.349852 15.4795ZM0.349852 13.7959L0.420563 13.8666L3.72623 10.5609L3.65552 10.4902L3.58481 10.4195L0.279141 13.7252L0.349852 13.7959ZM3.65552 10.4902L3.72627 10.5609C3.92895 10.358 4.0397 10.0918 4.0397 9.80762H3.9397H3.8397C3.8397 10.0383 3.75037 10.2538 3.58477 10.4196L3.65552 10.4902ZM3.9397 9.80762H4.0397V5.13379H3.9397H3.8397V9.80762H3.9397ZM3.9397 5.13379L4.0397 5.13381C4.03984 4.5289 4.53126 4.04374 5.13019 4.04336L5.13013 3.94336L5.13006 3.84336C4.42159 3.8438 3.83987 4.41762 3.8397 5.13377L3.9397 5.13379ZM5.13013 3.94336V4.04336H9.80493V3.94336V3.84336H5.13013V3.94336ZM9.80493 3.94336L9.80494 4.04336C10.0894 4.04333 10.3555 3.93166 10.5582 3.72892L10.4875 3.6582L10.4168 3.58748C10.2509 3.7534 10.0355 3.84334 9.80492 3.84336L9.80493 3.94336ZM10.4875 3.6582L10.5583 3.72887L13.864 0.419302L13.7932 0.348633L13.7225 0.277964L10.4168 3.58753L10.4875 3.6582ZM13.7932 0.348633L13.8601 0.422962L13.948 0.343861L13.8811 0.269531L13.8142 0.195202L13.7263 0.274303L13.7932 0.348633ZM13.8811 0.269531L13.9444 0.346938C14.1394 0.187481 14.385 0.100101 14.635 0.1L14.635 0L14.635 -0.1C14.3388 -0.0998804 14.0485 0.00346058 13.8178 0.192124L13.8811 0.269531ZM10.7307 25.374L10.66 25.4447L13.9618 28.7455L14.0325 28.6748L14.1032 28.6041L10.8014 25.3033L10.7307 25.374ZM14.0325 28.6748L14.1032 28.6041L10.8024 25.3033L10.7317 25.374L10.661 25.4447L13.9618 28.7455L14.0325 28.6748ZM10.7317 25.374L10.8024 25.3033C10.7692 25.2702 10.7345 25.2385 10.6986 25.209L10.635 25.2861L10.5714 25.3633C10.6022 25.3887 10.6322 25.416 10.661 25.4447L10.7317 25.374ZM10.635 25.2861L10.5674 25.3598L10.6631 25.4477L10.7307 25.374L10.7984 25.3004L10.7026 25.2125L10.635 25.2861ZM12.1711 5.33301L12.1004 5.26229C11.4878 5.87488 10.6715 6.2154 9.80004 6.21543L9.80005 6.31543L9.80005 6.41543C10.7248 6.4154 11.5919 6.05365 12.2418 5.40372L12.1711 5.33301ZM9.80005 6.31543V6.21543H6.31665V6.31543V6.41543H9.80005V6.31543ZM6.31665 6.31543H6.21665V9.79883H6.31665H6.41665V6.31543H6.31665ZM6.31665 9.79883H6.21665C6.21665 10.6661 5.87574 11.481 5.26421 12.0975L5.3352 12.168L5.4062 12.2384C6.05427 11.585 6.41665 10.7197 6.41665 9.79883H6.31665ZM5.3352 12.168L5.26449 12.0973L5.26352 12.0982L5.33423 12.1689L5.40494 12.2397L5.40591 12.2387L5.3352 12.168ZM5.33423 12.1689L5.26353 12.0982L2.79869 14.5621L2.86938 14.6328L2.94008 14.7035L5.40492 12.2397L5.33423 12.1689ZM2.86938 14.6328L2.79869 14.7035L5.26353 17.1674L5.33423 17.0967L5.40492 17.026L2.94008 14.5621L2.86938 14.6328ZM5.33423 17.0967L5.26352 17.1674C5.87598 17.7799 6.21646 18.5956 6.21665 19.4668L6.31665 19.4668L6.41665 19.4668C6.41644 18.5423 6.05473 17.6758 5.40494 17.026L5.33423 17.0967ZM6.31665 19.4668H6.21665V22.9512H6.31665H6.41665V19.4668H6.31665ZM6.31665 22.9512V23.0512H9.80493V22.9512V22.8512H6.31665V22.9512ZM9.80493 22.9512L9.80493 23.0512C10.672 23.0512 11.488 23.392 12.1004 24.0043L12.1711 23.9336L12.2418 23.8629C11.5922 23.2134 10.7255 22.8512 9.80493 22.8512L9.80493 22.9512ZM12.1711 23.9336L12.1004 24.0043L14.5633 26.4682L14.634 26.3975L14.7048 26.3268L12.2419 23.8629L12.1711 23.9336ZM14.634 26.3975L14.7047 26.4682L17.1696 24.0043L17.0989 23.9336L17.0282 23.8629L14.5633 26.3267L14.634 26.3975ZM17.0989 23.9336L17.1696 24.0043C17.7821 23.392 18.5978 23.0513 19.469 23.0512L19.469 22.9512L19.469 22.8512C18.5445 22.8513 17.678 23.2133 17.0282 23.8629L17.0989 23.9336ZM19.469 22.9512V23.0512H22.9524V22.9512V22.8512H19.469V22.9512ZM22.9524 22.9512H23.0524V19.4668H22.9524H22.8524V22.9512H22.9524ZM22.9524 19.4668L23.0524 19.4668C23.0526 18.5997 23.3933 17.7845 24.0048 17.1681L23.9338 17.0977L23.8628 17.0272C23.2147 17.6805 22.8526 18.5461 22.8524 19.4668L22.9524 19.4668ZM23.9338 17.0977L24.0045 17.1684L26.4694 14.7035L26.3987 14.6328L26.328 14.5621L23.8631 17.0269L23.9338 17.0977ZM26.3987 14.6328L26.4694 14.5621L24.0055 12.0982L23.9348 12.1689L23.8641 12.2397L26.328 14.7035L26.3987 14.6328ZM23.9348 12.1689L24.0055 12.0983C23.3933 11.4856 23.0524 10.67 23.0524 9.79883H22.9524H22.8524C22.8524 10.7233 23.2146 11.5898 23.8641 12.2396L23.9348 12.1689ZM22.9524 9.79883H23.0524V6.31543H22.9524H22.8524V9.79883H22.9524ZM22.9524 6.31543V6.21543H19.469V6.31543V6.41543H22.9524V6.31543ZM19.469 6.31543L19.469 6.21543C18.6018 6.21531 17.7868 5.87372 17.1703 5.26202L17.0999 5.33301L17.0294 5.40399C17.6827 6.05217 18.5481 6.4153 19.469 6.41543L19.469 6.31543ZM17.0999 5.33301V5.23301H17.0989V5.33301V5.43301H17.0999V5.33301ZM17.0989 5.33301L17.1696 5.2623L14.7047 2.79745L14.634 2.86816L14.5633 2.93887L17.0282 5.40372L17.0989 5.33301ZM14.634 2.86816L14.5633 2.79748L12.1004 5.26233L12.1711 5.33301L12.2419 5.40369L14.7048 2.93885L14.634 2.86816ZM10.2747 16.2744L10.3322 16.3562C10.8233 16.0106 11.5049 16.13 11.8477 16.6253L11.9299 16.5684L12.0122 16.5114C11.6059 15.9246 10.7987 15.7834 10.2171 16.1926L10.2747 16.2744ZM11.9299 16.5684L11.85 16.6284L11.9711 16.7896L12.051 16.7295L12.131 16.6694L12.0099 16.5083L11.9299 16.5684ZM12.051 16.7295L11.9728 16.7917C12.6158 17.6002 13.5967 18.0764 14.635 18.0766L14.635 17.9766L14.635 17.8766C13.6579 17.8764 12.7345 17.4282 12.1293 16.6672L12.051 16.7295ZM14.635 17.9766L14.635 18.0766C15.7424 18.0764 16.7844 17.5347 17.421 16.6257L17.3391 16.5684L17.2572 16.511C16.658 17.3665 15.6772 17.8764 14.635 17.8766L14.635 17.9766ZM17.3391 16.5684L17.4286 16.6131L17.4295 16.6111L17.3401 16.5664L17.2506 16.5217L17.2497 16.5236L17.3391 16.5684ZM17.3401 16.5664L17.4217 16.6243C17.7471 16.1654 18.3642 16.0298 18.8452 16.2973L18.8938 16.21L18.9424 16.1226C18.3724 15.8055 17.6431 15.9664 17.2585 16.5086L17.3401 16.5664ZM18.8938 16.21L18.8406 16.2946L18.9431 16.3591L18.9963 16.2744L19.0496 16.1898L18.947 16.1253L18.8938 16.21ZM18.9963 16.2744L18.9256 16.3451L18.9276 16.3471L18.9983 16.2764L19.069 16.2057L19.067 16.2037L18.9963 16.2744ZM18.9983 16.2764L18.9404 16.3579C19.43 16.7052 19.5514 17.3835 19.2083 17.8754L19.2903 17.9326L19.3723 17.9898C19.779 17.4069 19.6344 16.6049 19.0561 16.1948L18.9983 16.2764ZM19.2903 17.9326L19.2196 17.8619L19.2186 17.8629L19.2893 17.9336L19.36 18.0043L19.361 18.0033L19.2903 17.9326ZM19.2893 17.9336L19.2075 17.8761C18.1605 19.3673 16.4512 20.2573 14.635 20.2574L14.635 20.3574L14.635 20.4574C16.5166 20.4573 18.2869 19.5354 19.3711 17.9911L19.2893 17.9336ZM14.635 20.3574L14.635 20.2574C12.8186 20.2573 11.1085 19.3675 10.0616 17.8761L9.97973 17.9336L9.89789 17.991C10.9821 19.5357 12.7532 20.4573 14.635 20.4574L14.635 20.3574ZM9.97973 17.9336L10.0504 18.0043L10.0514 18.0033L9.98071 17.9326L9.91 17.8619L9.90902 17.8629L9.97973 17.9336ZM9.98071 17.9326L10.0624 17.8749C9.71467 17.3833 9.83445 16.6988 10.3315 16.3557L10.2747 16.2734L10.2178 16.1911C9.62892 16.5977 9.48728 17.4081 9.89907 17.9904L9.98071 17.9326ZM10.2747 16.2734H10.1747V16.2744H10.2747H10.3747V16.2734H10.2747ZM13.1477 18.0029L13.1069 18.0942C13.1373 18.1078 13.1765 18.1225 13.2002 18.1324L13.2385 18.04L13.2769 17.9477C13.2402 17.9324 13.2178 17.9247 13.1885 17.9116L13.1477 18.0029ZM13.2385 18.04L13.2769 17.9477C13.2368 17.931 13.2007 17.9166 13.1648 17.9002L13.1233 17.9912L13.0818 18.0822C13.1218 18.1004 13.1632 18.117 13.2002 18.1324L13.2385 18.04ZM13.1233 17.9912L13.08 18.0814L13.1044 18.0931L13.1477 18.0029L13.191 17.9128L13.1666 17.9011L13.1233 17.9912ZM23.9778 17.5635L23.9004 17.5002C23.8392 17.575 23.7822 17.6523 23.7289 17.7311L23.8118 17.7871L23.8946 17.8431C23.9449 17.7688 23.9982 17.6964 24.0552 17.6268L23.9778 17.5635ZM23.8118 17.7871L23.8946 17.8431C23.9464 17.7666 24.0018 17.6921 24.0609 17.6201L23.9836 17.5566L23.9064 17.4931C23.8431 17.5701 23.7841 17.6496 23.7289 17.7311L23.8118 17.7871ZM23.9836 17.5566L23.9077 17.4916L23.9019 17.4984L23.9778 17.5635L24.0537 17.6286L24.0596 17.6217L23.9836 17.5566ZM11.9241 17.1113L11.8497 17.1782C11.858 17.1874 11.8663 17.196 11.8734 17.2033C11.881 17.211 11.887 17.2171 11.8928 17.2234L11.9661 17.1553L12.0393 17.0872C12.0314 17.0786 12.0231 17.0703 12.0165 17.0635C12.0095 17.0563 12.0037 17.0503 11.9984 17.0445L11.9241 17.1113ZM11.9661 17.1553L12.0393 17.0872C12.018 17.0643 11.9997 17.0452 11.9814 17.0245L11.9065 17.0908L11.8316 17.1571C11.8521 17.1802 11.8743 17.2035 11.8928 17.2234L11.9661 17.1553ZM11.9065 17.0908L11.8306 17.1559L11.8481 17.1764L11.9241 17.1113L12 17.0462L11.9824 17.0257L11.9065 17.0908ZM18.7268 16.5107L18.6783 16.5982C18.6999 16.6102 18.7214 16.6237 18.7428 16.6387L18.8 16.5566L18.8573 16.4746C18.8309 16.4562 18.8036 16.439 18.7753 16.4233L18.7268 16.5107ZM18.8 16.5566L18.8537 16.4722L18.7814 16.4263L18.7278 16.5107L18.6742 16.5952L18.7464 16.6411L18.8 16.5566ZM18.7278 16.5107L18.7764 16.4234C18.7479 16.4075 18.7192 16.3939 18.6911 16.3818L18.6516 16.4736L18.6121 16.5655C18.6355 16.5756 18.6579 16.5863 18.6791 16.5981L18.7278 16.5107ZM18.6516 16.4736L18.6074 16.5633L18.6826 16.6004L18.7268 16.5107L18.7711 16.4211L18.6959 16.384L18.6516 16.4736ZM10.6194 16.4717L10.5793 16.38C10.5676 16.3852 10.5564 16.3905 10.5463 16.3954L10.5901 16.4854L10.6339 16.5753C10.6432 16.5707 10.6515 16.5668 10.6594 16.5633L10.6194 16.4717ZM10.5901 16.4854L10.6337 16.5753C10.6643 16.5605 10.6959 16.548 10.7282 16.5375L10.6975 16.4424L10.6668 16.3472C10.6263 16.3603 10.586 16.3762 10.5465 16.3954L10.5901 16.4854ZM10.6975 16.4424L10.6624 16.3487L10.5843 16.378L10.6194 16.4717L10.6545 16.5653L10.7326 16.536L10.6975 16.4424ZM18.4934 16.4238L18.4726 16.5216C18.4979 16.527 18.5212 16.5327 18.5433 16.5397L18.5735 16.4443L18.6037 16.349C18.5729 16.3393 18.5426 16.332 18.5142 16.326L18.4934 16.4238ZM18.5735 16.4443L18.5994 16.3478L18.5193 16.3263L18.4934 16.4229L18.4675 16.5194L18.5476 16.5409L18.5735 16.4443ZM18.4934 16.4229L18.514 16.325C18.4833 16.3185 18.4529 16.314 18.4234 16.3108L18.4124 16.4102L18.4013 16.5095C18.426 16.5123 18.4498 16.5159 18.4728 16.5207L18.4934 16.4229ZM18.4124 16.4102L18.3957 16.5088L18.4768 16.5224L18.4934 16.4238L18.51 16.3252L18.429 16.3115L18.4124 16.4102ZM10.7307 3.90137L10.66 3.83065C10.6023 3.88838 10.5408 3.93964 10.4757 3.98342L10.5315 4.06641L10.5873 4.14939C10.664 4.0978 10.7354 4.03812 10.8014 3.97208L10.7307 3.90137ZM10.5315 4.06641H10.4315V4.06738H10.5315H10.6315V4.06641H10.5315ZM10.5315 4.06738L10.5871 4.15048C10.664 4.09904 10.736 4.03949 10.8024 3.97306L10.7317 3.90234L10.661 3.83163C10.6033 3.88926 10.5414 3.94042 10.4759 3.98428L10.5315 4.06738ZM10.7317 3.90234L10.8025 3.973L14.1081 0.662455L14.0374 0.591797L13.9666 0.521138L10.6609 3.83169L10.7317 3.90234ZM14.0374 0.591797V0.491797H14.0364V0.591797V0.691797H14.0374V0.591797ZM14.0364 0.591797L13.9656 0.521128L10.66 3.8307L10.7307 3.90137L10.8015 3.97204L14.1071 0.662466L14.0364 0.591797Z" fill="var(--stroke-0, #4A4A4A)" mask="url(#path-1-inside-1_0_601)"/>
</g>
</svg>
