<svg preserveAspectRatio="none" width="100%" height="100%" overflow="visible" style="display: block;" viewBox="0 0 20 21" fill="none" xmlns="http://www.w3.org/2000/svg">
<g id="icon">
<path d="M5 10.0035C5 9.45104 5.44772 9.00317 6 9.00317C6.55228 9.00317 7 9.45104 7 10.0035C7 10.556 6.55228 11.0039 6 11.0039C5.44772 11.0039 5 10.556 5 10.0035Z" fill="var(--fill-0, black)" fill-opacity="0.65"/>
<path d="M9 10.0035C9 9.45104 9.44772 9.00317 10 9.00317C10.5523 9.00317 11 9.45104 11 10.0035C11 10.556 10.5523 11.0039 10 11.0039C9.44772 11.0039 9 10.556 9 10.0035Z" fill="var(--fill-0, black)" fill-opacity="0.65"/>
<path d="M14 9.00317C13.4477 9.00317 13 9.45104 13 10.0035C13 10.556 13.4477 11.0039 14 11.0039C14.5523 11.0039 15 10.556 15 10.0035C15 9.45104 14.5523 9.00317 14 9.00317Z" fill="var(--fill-0, black)" fill-opacity="0.65"/>
<path fill-rule="evenodd" clip-rule="evenodd" d="M1.85697 15.8112C0.688193 14.1738 0 12.1679 0 10.0035C0 4.47873 4.47715 0 10 0C15.5228 0 20 4.47873 20 10.0035C20 15.5283 15.5228 20.007 10 20.007H9C8.93816 20.007 8.86874 20.0107 8.81 20C8.40374 19.9891 8.07064 19.9651 7.75625 19.9516C6.79177 19.9103 6.08679 19.88 4.58193 20.0037C3.57844 20.0861 2.75599 20.3961 2.1826 20.6393C2.1104 20.67 2.04249 20.6994 1.97696 20.7278L1.9573 20.7364C1.89971 20.7614 1.84203 20.7864 1.78875 20.809C1.68585 20.8528 1.53794 20.9147 1.39837 20.9526C1.33484 20.9699 1.19296 21.0056 1.02125 20.9993C0.852347 20.993 0.438572 20.9312 0.175845 20.5226C-0.0537586 20.1654 0.015025 19.8105 0.0389519 19.7058C0.068908 19.5747 0.117816 19.4661 0.150537 19.3998L1.85697 15.8112ZM2 10.0035C2 5.58369 5.58172 2.0007 10 2.0007C14.4183 2.0007 18 5.58369 18 10.0035C18 14.4234 14.4183 18.0063 10 18.0063H9.58163C9.55871 18.0045 9.53558 18.0034 9.51225 18.0031C8.89861 17.9957 8.40284 17.9748 7.94053 17.9554C6.91111 17.9121 6.04758 17.8758 4.41824 18.0097C3.86156 18.0554 3.35219 18.1542 2.90078 18.2736L3.90312 16.1657C3.97535 16.0138 4.00594 15.8529 3.99948 15.6957C4.0072 15.4638 3.93474 15.2281 3.77737 15.0336C2.66536 13.6589 2 11.9103 2 10.0035Z" fill="var(--fill-0, black)" fill-opacity="0.65"/>
</g>
</svg>
