<svg preserveAspectRatio="none" width="100%" height="100%" overflow="visible" style="display: block;" viewBox="0 0 18 18" fill="none" xmlns="http://www.w3.org/2000/svg">
<path id="icon" fill-rule="evenodd" clip-rule="evenodd" d="M15 0C16.5977 0 17.9037 1.24892 17.9949 2.82373L18 3V15C18 16.5977 16.7511 17.9037 15.1763 17.9949L15 18H3C1.40232 18 0.0963391 16.7511 0.00509262 15.1763L0 15V3C0 1.40232 1.24892 0.0963391 2.82373 0.00509262L3 0H15ZM15 2H3C2.48716 2 2.06449 2.38604 2.00673 2.88338L2 3V15C2 15.5128 2.38604 15.9355 2.88338 15.9933L3 16H15C15.5128 16 15.9355 15.614 15.9933 15.1166L16 15V3C16 2.48716 15.614 2.06449 15.1166 2.00673L15 2ZM13 12C13.5523 12 14 12.4477 14 13C14 13.5128 13.614 13.9355 13.1166 13.9933L13 14H5C4.44772 14 4 13.5523 4 13C4 12.4872 4.38604 12.0645 4.88338 12.0067L5 12H13ZM13 8C13.5523 8 14 8.44772 14 9C14 9.51284 13.614 9.93551 13.1166 9.99327L13 10H5C4.44772 10 4 9.55228 4 9C4 8.48716 4.38604 8.06449 4.88338 8.00673L5 8H13ZM5 4C5.55228 4 6 4.44772 6 5C6 5.55228 5.55228 6 5 6C4.44772 6 4 5.55228 4 5C4 4.44772 4.44772 4 5 4ZM13 4C13.5523 4 14 4.44772 14 5C14 5.51284 13.614 5.93551 13.1166 5.99327L13 6H9C8.44772 6 8 5.55228 8 5C8 4.48716 8.38604 4.06449 8.88338 4.00673L9 4H13Z" fill="var(--fill-0, black)" fill-opacity="0.65"/>
</svg>
