<svg preserveAspectRatio="none" width="100%" height="100%" overflow="visible" style="display: block;" viewBox="0 0 18 18" fill="none" xmlns="http://www.w3.org/2000/svg">
<path id="icon" fill-rule="evenodd" clip-rule="evenodd" d="M3 0C1.40232 0 0.0963391 1.24892 0.00509262 2.82373L0 3V6C0 6.55228 0.447715 7 1 7C1.51284 7 1.93551 6.61396 1.99327 6.11662L2 6V3.414L5.29289 6.70711C5.68342 7.09763 6.31658 7.09763 6.70711 6.70711C7.06759 6.34662 7.09532 5.77939 6.7903 5.3871L6.70711 5.29289L3.416 2H6C6.55228 2 7 1.55228 7 1C7 0.487164 6.61396 0.0644928 6.11662 0.0067277L6 0H3ZM15 18C16.5977 18 17.9037 16.7511 17.9949 15.1763L18 15V12C18 11.4477 17.5523 11 17 11C16.4872 11 16.0645 11.386 16.0067 11.8834L16 12V14.586L12.7071 11.2929C12.3166 10.9024 11.6834 10.9024 11.2929 11.2929C10.9324 11.6534 10.9047 12.2206 11.2097 12.6129L11.2929 12.7071L14.584 16H12C11.4477 16 11 16.4477 11 17C11 17.5128 11.386 17.9355 11.8834 17.9933L12 18H15ZM15 0C16.5977 0 17.9037 1.24892 17.9949 2.82373L18 3V6C18 6.55228 17.5523 7 17 7C16.4872 7 16.0645 6.61396 16.0067 6.11662L16 6V3.414L12.7071 6.70711C12.3166 7.09763 11.6834 7.09763 11.2929 6.70711C10.9324 6.34662 10.9047 5.77939 11.2097 5.3871L11.2929 5.29289L14.584 2H12C11.4477 2 11 1.55228 11 1C11 0.487164 11.386 0.0644928 11.8834 0.0067277L12 0H15ZM3 18C1.40232 18 0.0963391 16.7511 0.00509262 15.1763L0 15V12C0 11.4477 0.447715 11 1 11C1.51284 11 1.93551 11.386 1.99327 11.8834L2 12V14.586L5.29289 11.2929C5.68342 10.9024 6.31658 10.9024 6.70711 11.2929C7.06759 11.6534 7.09532 12.2206 6.7903 12.6129L6.70711 12.7071L3.416 16H6C6.55228 16 7 16.4477 7 17C7 17.5128 6.61396 17.9355 6.11662 17.9933L6 18H3Z" fill="var(--fill-0, black)" fill-opacity="0.65"/>
</svg>
