<svg preserveAspectRatio="none" width="100%" height="100%" overflow="visible" style="display: block;" viewBox="0 0 18 18" fill="none" xmlns="http://www.w3.org/2000/svg">
<path id="icon" fill-rule="evenodd" clip-rule="evenodd" d="M4 7C5.59768 7 6.90366 5.75108 6.99491 4.17627L7 4V1C7 0.447715 6.55228 4.47035e-08 6 4.47035e-08C5.48716 4.47035e-08 5.06449 0.38604 5.00673 0.883379L5 1V3.586L1.70711 0.292893C1.31658 -0.0976311 0.683417 -0.0976311 0.292893 0.292893C-0.0675908 0.653377 -0.0953202 1.22061 0.209705 1.6129L0.292893 1.70711L3.584 5H1C0.447715 5 1.46188e-08 5.44772 1.46188e-08 6C1.46188e-08 6.51284 0.38604 6.93551 0.883379 6.99327L1 7H4ZM14 11C12.4023 11 11.0963 12.2489 11.0051 13.8237L11 14V17C11 17.5523 11.4477 18 12 18C12.5128 18 12.9355 17.614 12.9933 17.1166L13 17V14.414L16.2929 17.7071C16.6834 18.0976 17.3166 18.0976 17.7071 17.7071C18.0676 17.3466 18.0953 16.7794 17.7903 16.3871L17.7071 16.2929L14.416 13H17C17.5523 13 18 12.5523 18 12C18 11.4872 17.614 11.0645 17.1166 11.0067L17 11H14ZM14 7C12.4023 7 11.0963 5.75108 11.0051 4.17627L11 4V1C11 0.447715 11.4477 4.47035e-08 12 4.47035e-08C12.5128 4.47035e-08 12.9355 0.38604 12.9933 0.883379L13 1V3.586L16.2929 0.292893C16.6834 -0.0976311 17.3166 -0.0976311 17.7071 0.292893C18.0676 0.653377 18.0953 1.22061 17.7903 1.6129L17.7071 1.70711L14.416 5H17C17.5523 5 18 5.44772 18 6C18 6.51284 17.614 6.93551 17.1166 6.99327L17 7H14ZM4 11C5.59768 11 6.90366 12.2489 6.99491 13.8237L7 14V17C7 17.5523 6.55228 18 6 18C5.48716 18 5.06449 17.614 5.00673 17.1166L5 17V14.414L1.70711 17.7071C1.31658 18.0976 0.683417 18.0976 0.292893 17.7071C-0.0675908 17.3466 -0.0953202 16.7794 0.209705 16.3871L0.292893 16.2929L3.584 13H1C0.447715 13 1.46188e-08 12.5523 1.46188e-08 12C1.46188e-08 11.4872 0.38604 11.0645 0.883379 11.0067L1 11H4Z" fill="var(--fill-0, black)" fill-opacity="0.65"/>
</svg>
