<svg preserveAspectRatio="none" width="100%" height="100%" overflow="visible" style="display: block;" viewBox="0 0 12.9111 12.9111" fill="none" xmlns="http://www.w3.org/2000/svg">
<path id="icon" d="M4.8418 7.37793C5.2237 7.378 5.53314 7.68743 5.5332 8.06934V12.2197C5.53305 12.6016 5.22364 12.9111 4.8418 12.9111H0.691406C0.309623 12.911 0.000152512 12.6015 0 12.2197V8.06934C5.79762e-05 7.68748 0.309565 7.37807 0.691406 7.37793H4.8418ZM12.2197 7.37793C12.6016 7.37808 12.9111 7.68748 12.9111 8.06934V12.2197C12.911 12.6015 12.6015 12.911 12.2197 12.9111H8.06934C7.68748 12.9111 7.37808 12.6016 7.37793 12.2197V8.06934C7.37799 7.68742 7.68742 7.37799 8.06934 7.37793H12.2197ZM4.8418 0C5.22365 6.98248e-05 5.53306 0.309572 5.5332 0.691406V4.8418C5.53313 5.22369 5.22369 5.53313 4.8418 5.5332H0.691406C0.309572 5.53306 7.03592e-05 5.22365 0 4.8418V0.691406C0.000140133 0.309615 0.309615 0.000140667 0.691406 0H4.8418ZM12.2197 0C12.6015 0.000151978 12.911 0.309623 12.9111 0.691406V4.8418C12.9111 5.22364 12.6016 5.53305 12.2197 5.5332H8.06934C7.68743 5.53315 7.378 5.2237 7.37793 4.8418V0.691406C7.37807 0.309565 7.68748 5.85105e-05 8.06934 0H12.2197Z" fill="var(--fill-0, black)" fill-opacity="0.2"/>
</svg>
