<svg preserveAspectRatio="none" width="100%" height="100%" overflow="visible" style="display: block;" viewBox="0 0 18.4444 16.6" fill="none" xmlns="http://www.w3.org/2000/svg">
<g id="icon">
<path fill-rule="evenodd" clip-rule="evenodd" d="M3.68889 0C1.65157 0 0 1.65157 0 3.68889C0 5.72621 1.65157 7.37778 3.68889 7.37778H14.7556C16.7929 7.37778 18.4444 5.72621 18.4444 3.68889C18.4444 1.65157 16.7929 0 14.7556 0H3.68889ZM1.84444 3.68889C1.84444 2.67023 2.67023 1.84444 3.68889 1.84444H14.7556C15.7742 1.84444 16.6 2.67023 16.6 3.68889C16.6 4.70755 15.7742 5.53333 14.7556 5.53333H3.68889C2.67023 5.53333 1.84444 4.70755 1.84444 3.68889Z" fill="var(--fill-0, black)" fill-opacity="0.7"/>
<path fill-rule="evenodd" clip-rule="evenodd" d="M3.68889 9.22222C1.65157 9.22222 0 10.8738 0 12.9111C0 14.9484 1.65157 16.6 3.68889 16.6H14.7556C16.7929 16.6 18.4444 14.9484 18.4444 12.9111C18.4444 10.8738 16.7929 9.22222 14.7556 9.22222H3.68889ZM1.84444 12.9111C1.84444 11.8925 2.67023 11.0667 3.68889 11.0667H14.7556C15.7742 11.0667 16.6 11.8925 16.6 12.9111C16.6 13.9298 15.7742 14.7556 14.7556 14.7556H3.68889C2.67023 14.7556 1.84444 13.9298 1.84444 12.9111Z" fill="var(--fill-0, black)" fill-opacity="0.7"/>
</g>
</svg>
