<svg preserveAspectRatio="none" width="100%" height="100%" overflow="visible" style="display: block;" viewBox="0 0 24 16" fill="none" xmlns="http://www.w3.org/2000/svg">
<g id="Vector">
<path d="M1.1813 5.42864C1.73358 5.42864 2.1813 5.87635 2.1813 6.42864V9.57171C2.1813 10.124 1.73358 10.5717 1.1813 10.5717H1C0.447715 10.5717 0 10.124 0 9.57171V6.42864C0 5.87635 0.447715 5.42864 1 5.42864H1.1813Z" fill="var(--fill-0, #13352C)"/>
<path d="M6.63597 4.00005C7.18826 4.00005 7.63597 4.44777 7.63597 5.00005V11C7.63597 11.5523 7.18826 12 6.63597 12H6.45467C5.90239 12 5.45468 11.5523 5.45468 11V5.00005C5.45468 4.44776 5.90239 4.00005 6.45468 4.00005H6.63597Z" fill="var(--fill-0, #13352C)"/>
<path d="M12.0906 0C12.6429 -2.52904e-08 13.0906 0.447715 13.0906 1L13.0907 15C13.0907 15.5523 12.6429 16 12.0907 16H11.9094C11.3571 16 10.9094 15.5523 10.9094 15L10.9094 1C10.9094 0.447715 11.3571 3.35926e-08 11.9094 8.30214e-09L12.0906 0Z" fill="var(--fill-0, #13352C)"/>
<path d="M17.5453 4.00005C18.0976 4.00005 18.5453 4.44777 18.5453 5.00005V11C18.5453 11.5523 18.0976 12 17.5453 12H17.364C16.8117 12 16.364 11.5523 16.364 11V5.00005C16.364 4.44776 16.8117 4.00005 17.364 4.00005H17.5453Z" fill="var(--fill-0, #13352C)"/>
<path d="M23 5.42864C23.5523 5.42864 24 5.87635 24 6.42864V9.57171C24 10.124 23.5523 10.5717 23 10.5717H22.8187C22.2664 10.5717 21.8187 10.124 21.8187 9.57171V6.42864C21.8187 5.87635 22.2664 5.42864 22.8187 5.42864H23Z" fill="var(--fill-0, #13352C)"/>
</g>
</svg>
